<svg xmlns="http://www.w3.org/2000/svg" viewBox="0 0 512 512" width="512" height="512">
  <!-- Background -->
  <rect width="512" height="512" rx="64" fill="#ff0000" />
  
  <!-- Play Button -->
  <path d="M256 128c-70.7 0-128 57.3-128 128s57.3 128 128 128 128-57.3 128-128-57.3-128-128-128zm-48 183.9V200.1c0-5.7 6.3-9.2 11.1-6.2l73.3 41.9c4.5 2.6 4.5 9.1 0 11.6l-73.3 41.9c-4.8 3-11.1-.5-11.1-6.2z" fill="#ffffff" />
  
  <!-- Loop Arrows -->
  <path d="M384 256c0 46.5-25.3 87.1-62.8 108.9l19.8 19.8c45.1-27.9 75.3-77.5 75.3-134.2 0-87.3-70.7-158.1-158.1-158.1-33.7 0-65 10.6-90.7 28.5l21.2 21.2c20.7-13.3 45.3-21 71.8-21 72.6 0 131.6 59 131.6 131.6z" fill="#ffffff" />
  <path d="M128 256c0-46.5 25.3-87.1 62.8-108.9l-19.8-19.8c-45.1 27.9-75.3 77.5-75.3 134.2 0 87.3 70.7 158.1 158.1 158.1 33.7 0 65-10.6 90.7-28.5l-21.2-21.2c-20.7 13.3-45.3 21-71.8 21-72.6 0-131.6-59-131.6-131.6z" fill="#ffffff" />
</svg> 